<svg xmlns="http://www.w3.org/2000/svg" width="31" height="30" viewBox="0 0 31 30">
  <defs>
    <linearGradient id="plus-a" x1="50%" x2="50%" y1="0%" y2="100%">
      <stop offset="0%" stop-color="#7367F0"/>
      <stop offset="100%" stop-color="#CE9FFC"/>
    </linearGradient>
  </defs>
  <g fill="none" fill-rule="evenodd">
    <ellipse cx="15.5" cy="15" fill="url(#plus-a)" rx="15.5" ry="15"/>
    <path fill="#FFF" d="M15.5,7 C16.6045695,7 17.5,7.8954305 17.5,9 L17.5,13.499 L22,13.5 C23.1045695,13.5 24,14.3954305 24,15.5 C24,16.6045695 23.1045695,17.5 22,17.5 L17.5,17.5 L17.5,22 C17.5,23.1045695 16.6045695,24 15.5,24 C14.3954305,24 13.5,23.1045695 13.5,22 L13.5,17.5 L9,17.5 C7.8954305,17.5 7,16.6045695 7,15.5 C7,14.3954305 7.8954305,13.5 9,13.5 L13.5,13.5 L13.5,9 C13.5,7.8954305 14.3954305,7 15.5,7 Z"/>
  </g>
</svg>
